<svg xmlns="http://www.w3.org/2000/svg" xmlns:xlink="http://www.w3.org/1999/xlink" width="511.763" height="491.303" viewBox="0 0 511.763 491.303">
  <defs>
    <linearGradient id="linear-gradient" x1="0.775" y1="0.096" x2="0.255" y2="0.9" gradientUnits="objectBoundingBox">
      <stop offset="0" stop-color="#274f96"/>
      <stop offset="1" stop-color="#53b2cd"/>
    </linearGradient>
  </defs>
  <path id="global-network" d="M491.945,353.116a7.408,7.408,0,0,0,.389-.937c30.321-69.981,24.9-155.775-14.478-221.349,21.024-25.133-6.285-61.125-36.149-47.2-5.248-5.363-10.758-10.5-16.468-15.363,11.208-30.468-26.2-55.462-49.494-32.7C308.034,1.379,223.817,1.812,156.48,36.727,132.526,11.342,92.3,38.56,106.8,70.41A247.41,247.41,0,0,0,83.383,93.816c-6.259,7.164,5.08,16.983,11.3,9.869A232.4,232.4,0,0,1,116.448,81.9c14.925,10.765,36.566,5.281,44.754-11.151a326.5,326.5,0,0,1,76.87,33.268,30.878,30.878,0,0,0,2.263,22.067,345.073,345.073,0,0,0-53.088,57.626A30.63,30.63,0,0,0,151,200.149a467.811,467.811,0,0,0-94.142,10.117,30.58,30.58,0,0,0-11.93-12.171,229.631,229.631,0,0,1,27.5-64.359c4.956-7.97-7.554-16.255-12.737-7.923a244.582,244.582,0,0,0-29.258,68.419c-35.93.61-41.962,50.316-7.757,59.878A247.752,247.752,0,0,0,105.8,440.482c-11.064,29.887,24.855,54.539,48.559,33.459,69.178,36.785,156.607,36.79,225.789.012,24.109,23.844,62.723-2.794,49.143-33.965a245.6,245.6,0,0,0,62.657-86.872Zm-9.45-16.774a470.519,470.519,0,0,0-67.738-55.762,30.738,30.738,0,0,0-7.594-30.9,468.691,468.691,0,0,0,47.683-108.27,30,30,0,0,0,10.694-1.934C500.079,197.811,506.4,273.021,482.495,336.342ZM137.369,421.126a329,329,0,0,1,32.177-179.243c17.03,5.314,35.437-5.885,38.744-23.366a449.039,449.039,0,0,1,148.264,45.2,30.818,30.818,0,0,0,4.968,25.642,452.754,452.754,0,0,1-201.83,145.763,30.315,30.315,0,0,0-22.323-14ZM370.6,271.32a15.375,15.375,0,0,1,15.3-15.413c20.3.845,20.292,29.984,0,30.826A15.375,15.375,0,0,1,370.6,271.32ZM470.213,111a15.375,15.375,0,0,1-15.3,15.413c-20.3-.845-20.294-29.984,0-30.826A15.375,15.375,0,0,1,470.213,111ZM430.246,93.368c-10.366,14.565-5.555,35.62,10.073,44.277a453.761,453.761,0,0,1-46.092,104.441,30.781,30.781,0,0,0-12.92-.83,347.876,347.876,0,0,0-87.123-115.17,30.844,30.844,0,0,0,2.265-22.067,326.48,326.48,0,0,1,73.907-32.4c8.622,16.646,31.751,21.346,46.11,8.885q7.139,6.141,13.78,12.866ZM251.959,112.161a15.375,15.375,0,0,1,15.3-15.413c20.3.845,20.293,29.983,0,30.825a15.374,15.374,0,0,1-15.3-15.412ZM397.027,41.782a15.375,15.375,0,0,1,15.3,15.413c-.842,20.447-29.764,20.442-30.6,0A15.375,15.375,0,0,1,397.027,41.782ZM134.087,72.607a15.375,15.375,0,0,1-15.3-15.413c.842-20.448,29.764-20.441,30.6,0A15.375,15.375,0,0,1,134.087,72.607ZM164.36,56.044a30.442,30.442,0,0,0-.84-6.065C226.3,17.512,304.736,16.946,368,48.469a30.406,30.406,0,0,0-1.273,8.571A341.528,341.528,0,0,0,288.995,91a30.542,30.542,0,0,0-43.469,0A341.545,341.545,0,0,0,164.36,56.044Zm85.9,81.282a30.41,30.41,0,0,0,33.988,0,332.794,332.794,0,0,1,83.259,109.841,30.635,30.635,0,0,0-3.732,3.4,463.959,463.959,0,0,0-156.491-47.281,30.459,30.459,0,0,0-7.165-11.753,329.945,329.945,0,0,1,50.141-54.2Zm-71.738,60.1a15.375,15.375,0,0,1,15.3,15.413c-.842,20.448-29.764,20.442-30.6,0A15.376,15.376,0,0,1,178.527,197.421ZM14.859,224.639a15.375,15.375,0,0,1,15.3-15.413c20.3.845,20.292,29.983,0,30.825a15.374,15.374,0,0,1-15.3-15.412ZM37.676,254.1s22.781-4.968,22.781-29.267c0,0,58.456-9.344,87.867-9.672a30.356,30.356,0,0,0,8.414,18.771,343.962,343.962,0,0,0-34.231,189.321,30.347,30.347,0,0,0-7.99,4.907C65.586,384.33,37.676,310.886,37.676,254.1Zm96.411,212.665a15.413,15.413,0,0,1,0-30.826,15.646,15.646,0,0,1,15.3,15.413A15.375,15.375,0,0,1,134.087,466.769ZM267.26,486.646a229.047,229.047,0,0,1-104.569-25.269,31.194,31.194,0,0,0,1.628-11.979A467.7,467.7,0,0,0,373.114,298.885a30.239,30.239,0,0,0,14.384,2.8,331.169,331.169,0,0,1,7.831,37.6c1.429,9.658,16.272,7.5,14.839-2.194a346.183,346.183,0,0,0-8.347-39.916,30.45,30.45,0,0,0,4.977-3.872,455.357,455.357,0,0,1,69.5,58.083,230.651,230.651,0,0,1-56.434,76.9,30.232,30.232,0,0,0-7.939-4.278,348.579,348.579,0,0,0,1.9-41.945c-.152-9.8-15.151-9.568-15,.232a333.558,333.558,0,0,1-1.836,40.32c-17.689,2.813-29.258,21.155-24.384,38.345A229.013,229.013,0,0,1,267.26,486.646Zm134.49-18.573a15.375,15.375,0,0,1-15.3-15.413c.842-20.448,29.764-20.441,30.6,0A15.375,15.375,0,0,1,401.75,468.073Z" transform="translate(-0.002 -10.23)" fill="url(#linear-gradient)"/>
</svg>
