<svg id="Component_5_1" data-name="Component 5 – 1" xmlns="http://www.w3.org/2000/svg" xmlns:xlink="http://www.w3.org/1999/xlink" width="828" height="153" viewBox="0 0 828 153">
  <defs>
    <linearGradient id="linear-gradient" x1="0.846" y1="0.162" x2="0.16" y2="0.876" gradientUnits="objectBoundingBox">
      <stop offset="0" stop-color="#274f96"/>
      <stop offset="1" stop-color="#53b2cd"/>
    </linearGradient>
    <linearGradient id="linear-gradient-2" x1="1.594" y1="-1.688" x2="-0.398" y2="2.464" xlink:href="#linear-gradient"/>
    <linearGradient id="linear-gradient-3" x1="0.908" y1="0.078" x2="-1.377" y2="2.423" xlink:href="#linear-gradient"/>
  </defs>
  <g id="Component_4_1" data-name="Component 4 – 1">
    <circle id="Ellipse_1" data-name="Ellipse 1" cx="76.5" cy="76.5" r="76.5" transform="translate(458.25)" fill="url(#linear-gradient)"/>
    <path id="Path_1" data-name="Path 1" d="M106.05-105V0H93.75l-63-78.3V0h-15V-105h12.3l63,78.3V-105Zm107.7,91.95V0h-76.2V-105h74.1v13.05h-59.1V-59.7H205.2v12.75H152.55v33.9Zm45.15-78.9h-36V-105h86.85v13.05h-36V0H258.9ZM473.25-105,438.15,0H422.4L393.75-83.85,365.1,0H349.05l-35.1-105H329.4l28.35,85.35L387.3-105h13.8l28.95,85.8L459-105Z" transform="translate(-15.75 130)" fill="url(#linear-gradient-2)"/>
    <path id="Path_2" data-name="Path 2" d="M85.95,0,63.3-32.25q-4.2.3-6.6.3H30.75V0h-15V-105H56.7q20.4,0,32.1,9.75T100.5-68.4q0,12.15-6,20.7T77.4-35.25L102.3,0ZM56.25-44.7Q70.5-44.7,78-50.85T85.5-68.4q0-11.4-7.5-17.475T56.25-91.95H30.75V-44.7ZM159-46.65l-19.2,19.5V0h-15V-105h15v58.65l57-58.65h17.1L169.05-57.75,216.75,0H199.2Z" transform="translate(611.25 130)" fill="url(#linear-gradient-3)"/>
  </g>
  <path id="global-network" d="M130.17,100.958a1.959,1.959,0,0,0,.1-.248,65.608,65.608,0,0,0-3.831-58.569c5.563-6.65-1.663-16.174-9.565-12.489-1.389-1.419-2.847-2.778-4.357-4.065,2.966-8.062-6.933-14.675-13.1-8.652a64.793,64.793,0,0,0-58.018.307c-6.338-6.717-16.982.485-13.145,8.913a65.465,65.465,0,0,0-6.2,6.193c-1.656,1.9,1.344,4.494,2.99,2.611a61.492,61.492,0,0,1,5.759-5.764,8.087,8.087,0,0,0,11.842-2.951A86.392,86.392,0,0,1,63,35.046a8.17,8.17,0,0,0,.6,5.839A91.307,91.307,0,0,0,49.547,56.133a8.1,8.1,0,0,0-9.591,4.35,123.785,123.785,0,0,0-24.91,2.677,8.092,8.092,0,0,0-3.157-3.22,60.761,60.761,0,0,1,7.277-17.03c1.311-2.109-2-4.3-3.37-2.1a64.717,64.717,0,0,0-7.742,18.1C-1.454,59.079-3.05,72.231,6,74.761A65.556,65.556,0,0,0,28,124.076c-2.928,7.908,6.577,14.431,12.849,8.853a64.775,64.775,0,0,0,59.744,0c6.379,6.309,16.6-.739,13-8.987a64.986,64.986,0,0,0,16.579-22.987Zm-2.5-4.438a124.5,124.5,0,0,0-17.924-14.755,8.133,8.133,0,0,0-2.009-8.176A124.018,124.018,0,0,0,120.354,44.94a7.938,7.938,0,0,0,2.83-.512A61.62,61.62,0,0,1,127.67,96.52ZM36.349,118.954a87.054,87.054,0,0,1,8.514-47.428,8.106,8.106,0,0,0,10.252-6.183A118.817,118.817,0,0,1,94.346,77.3a8.154,8.154,0,0,0,1.315,6.785,119.8,119.8,0,0,1-53.4,38.569,8.021,8.021,0,0,0-5.907-3.7ZM98.062,79.315a4.078,4.078,0,1,1,4.048,4.078A4.068,4.068,0,0,1,98.062,79.315ZM124.42,36.894a4.078,4.078,0,1,1-4.048-4.078,4.068,4.068,0,0,1,4.048,4.078Zm-10.575-4.665a8.145,8.145,0,0,0,2.665,11.716,120.067,120.067,0,0,1-12.2,27.635,8.145,8.145,0,0,0-3.419-.22A92.049,92.049,0,0,0,77.842,40.886a8.161,8.161,0,0,0,.6-5.839A86.387,86.387,0,0,1,98,26.474a8.028,8.028,0,0,0,12.2,2.351q1.889,1.625,3.646,3.4ZM66.67,37.2a4.078,4.078,0,1,1,4.048,4.078A4.068,4.068,0,0,1,66.67,37.2Zm38.385-18.622a4.049,4.049,0,1,1-4.048,4.078,4.068,4.068,0,0,1,4.048-4.078ZM35.48,26.735a4.049,4.049,0,1,1,4.048-4.078,4.068,4.068,0,0,1-4.048,4.078Zm8.01-4.383a8.055,8.055,0,0,0-.222-1.6,60.808,60.808,0,0,1,54.106-.4,8.045,8.045,0,0,0-.337,2.268A90.369,90.369,0,0,0,76.469,31.6a8.081,8.081,0,0,0-11.5,0,90.374,90.374,0,0,0-21.477-9.249ZM66.22,43.86a8.047,8.047,0,0,0,8.993,0A88.058,88.058,0,0,1,97.244,72.924a8.107,8.107,0,0,0-.988.9A122.765,122.765,0,0,0,54.849,61.313a8.06,8.06,0,0,0-1.9-3.11A87.3,87.3,0,0,1,66.22,43.862Zm-18.982,15.9a4.049,4.049,0,1,1-4.048,4.078,4.068,4.068,0,0,1,4.048-4.078Zm-43.306,7.2a4.078,4.078,0,1,1,4.048,4.078,4.068,4.068,0,0,1-4.048-4.078Zm6.037,7.8A7.88,7.88,0,0,0,16,67.014s15.468-2.472,23.25-2.559a8.032,8.032,0,0,0,2.226,4.967,91.013,91.013,0,0,0-9.058,50.095,8.03,8.03,0,0,0-2.114,1.3C17.355,109.218,9.97,89.784,9.97,74.759ZM35.48,131.03a4.078,4.078,0,1,1,0-8.157,4.14,4.14,0,0,1,4.048,4.078,4.068,4.068,0,0,1-4.048,4.079Zm35.238,5.261a60.6,60.6,0,0,1-27.667-6.685,8.254,8.254,0,0,0,.428-3.171A123.754,123.754,0,0,0,98.728,86.609a8,8,0,0,0,3.806.741,87.629,87.629,0,0,1,2.072,9.949,1.985,1.985,0,0,0,3.926-.581,91.6,91.6,0,0,0-2.209-10.562,8.056,8.056,0,0,0,1.317-1.025A120.489,120.489,0,0,1,126.03,100.5,61.031,61.031,0,0,1,111.1,120.849a8,8,0,0,0-2.1-1.132,92.235,92.235,0,0,0,.5-11.1,1.985,1.985,0,0,0-3.969.061,88.255,88.255,0,0,1-.486,10.669,8.135,8.135,0,0,0-6.452,10.146,60.6,60.6,0,0,1-27.875,6.8Zm35.586-4.914a4.049,4.049,0,1,1,4.048-4.078,4.068,4.068,0,0,1-4.048,4.078Z" transform="translate(464.247 1.54)" fill="#fff"/>
</svg>
